<svg preserveAspectRatio="none" overflow="visible" style="display: block;" width="33.75" height="31.5" viewBox="0 0 33.75 31.5" fill="none" xmlns="http://www.w3.org/2000/svg">
<path id="Vector" d="M33 15.75C33 24.0343 25.7806 30.75 16.875 30.75M33 15.75C33 7.46573 25.7806 0.75 16.875 0.75M33 15.75C33 18.5114 25.7806 20.75 16.875 20.75C7.96941 20.75 0.75 18.5114 0.75 15.75M33 15.75C33 12.9886 25.7806 10.75 16.875 10.75C7.96941 10.75 0.75 12.9886 0.75 15.75M16.875 30.75C7.96941 30.75 0.75 24.0343 0.75 15.75M16.875 30.75V0.75M0.75 15.75C0.75 7.46573 7.96941 0.75 16.875 0.75" stroke="#242424" stroke-width="1.5" stroke-linecap="round" stroke-linejoin="round"/>
</svg>
